<svg width="28" height="28" viewBox="0 0 28 28" fill="none" xmlns="http://www.w3.org/2000/svg">
<path d="M8.60005 0.799988C4.29954 0.799988 0.800049 4.29948 0.800049 8.59999V19.4C0.800049 23.7005 4.29954 27.2 8.60005 27.2H19.4C23.7006 27.2 27.2001 23.7005 27.2001 19.4V8.59999C27.2001 4.29948 23.7006 0.799988 19.4 0.799988H8.60005ZM8.60005 1.99999H19.4C23.0519 1.99999 26 4.9481 26 8.59999V19.4C26 23.0519 23.0519 26 19.4 26H8.60005C4.94816 26 2.00005 23.0519 2.00005 19.4V8.59999C2.00005 4.9481 4.94816 1.99999 8.60005 1.99999ZM21.2001 5.59999C20.8818 5.59999 20.5766 5.72642 20.3515 5.95146C20.1265 6.1765 20 6.48173 20 6.79999C20 7.11825 20.1265 7.42347 20.3515 7.64852C20.5766 7.87356 20.8818 7.99999 21.2001 7.99999C21.5183 7.99999 21.8235 7.87356 22.0486 7.64852C22.2736 7.42347 22.4 7.11825 22.4 6.79999C22.4 6.48173 22.2736 6.1765 22.0486 5.95146C21.8235 5.72642 21.5183 5.59999 21.2001 5.59999ZM14 7.39999C10.3621 7.39999 7.40005 10.362 7.40005 14C7.40005 17.638 10.3621 20.6 14 20.6C17.638 20.6 20.6 17.638 20.6 14C20.6 10.362 17.638 7.39999 14 7.39999ZM14 8.59999C16.9895 8.59999 19.4 11.0105 19.4 14C19.4 16.9894 16.9895 19.4 14 19.4C11.0106 19.4 8.60005 16.9894 8.60005 14C8.60005 11.0105 11.0106 8.59999 14 8.59999Z" fill="black"/>
</svg>
