<svg width="28" height="30" viewBox="0 0 28 30" fill="none" xmlns="http://www.w3.org/2000/svg">
<path d="M14.0001 0.600006C10.679 0.600006 8.0001 3.27891 8.0001 6.60001V7.80001H3.25635L3.2001 8.32501L0.800098 29.325L0.725098 30H27.2751L27.2001 29.325L24.8001 8.32501L24.7438 7.80001H20.0001V6.60001C20.0001 3.27891 17.3212 0.600006 14.0001 0.600006ZM14.0001 1.80001C16.679 1.80001 18.8001 3.9211 18.8001 6.60001V7.80001H9.2001V6.60001C9.2001 3.9211 11.3212 1.80001 14.0001 1.80001ZM4.34385 9.00001H8.0001V10.3688C7.6415 10.5773 7.4001 10.957 7.4001 11.4C7.4001 12.0633 7.93682 12.6 8.6001 12.6C9.26338 12.6 9.8001 12.0633 9.8001 11.4C9.8001 10.957 9.55869 10.5773 9.2001 10.3688V9.00001H18.8001V10.3688C18.4415 10.5773 18.2001 10.957 18.2001 11.4C18.2001 12.0633 18.7368 12.6 19.4001 12.6C20.0634 12.6 20.6001 12.0633 20.6001 11.4C20.6001 10.957 20.3587 10.5773 20.0001 10.3688V9.00001H23.6563L25.9251 28.8H2.0751L4.34385 9.00001Z" fill="black"/>
</svg>
