<svg width="28" height="28" viewBox="0 0 28 28" fill="none" xmlns="http://www.w3.org/2000/svg">
<path d="M14 0.200012C6.38567 0.200012 0.199951 6.38573 0.199951 14C0.199951 16.4475 0.871164 18.7315 1.99058 20.7254L0.222217 27.0383C0.193966 27.1393 0.192689 27.246 0.218515 27.3476C0.24434 27.4493 0.296365 27.5424 0.369403 27.6177C0.442441 27.693 0.533939 27.7478 0.634775 27.7767C0.73561 27.8056 0.842261 27.8076 0.944092 27.7824L7.52651 26.1512C9.46073 27.1838 11.6555 27.8 14 27.8C21.6142 27.8 27.7999 21.6143 27.7999 14C27.7999 6.38573 21.6142 0.200012 14 0.200012ZM14 1.40001C20.9657 1.40001 26.5999 7.03429 26.5999 14C26.5999 20.9657 20.9657 26.6 14 26.6C11.7668 26.6 9.67522 26.0178 7.85698 25.0004C7.724 24.9261 7.56773 24.9051 7.41987 24.9418L1.65542 26.3703L3.20112 20.8555C3.22324 20.7775 3.22935 20.6959 3.21908 20.6156C3.2088 20.5352 3.18237 20.4578 3.14136 20.3879C2.03636 18.5142 1.39995 16.3341 1.39995 14C1.39995 7.03429 7.03423 1.40001 14 1.40001ZM8.9855 6.80001C8.60087 6.80001 8.05158 6.94311 7.60034 7.42931C7.32931 7.72134 6.19995 8.82172 6.19995 10.7563C6.19995 12.7732 7.59879 14.5135 7.76792 14.7371H7.76909V14.7383C7.75305 14.7172 7.98377 15.0513 8.29175 15.452C8.59973 15.8526 9.03039 16.3788 9.57143 16.9484C10.6535 18.0878 12.1749 19.4045 14.0632 20.2098C14.9328 20.5801 15.6189 20.8037 16.1386 20.9668C17.1019 21.2693 17.9792 21.2233 18.6382 21.1262C19.1315 21.0535 19.6741 20.8167 20.2109 20.477C20.7477 20.1372 21.2738 19.7148 21.5058 19.0731C21.672 18.613 21.7565 18.1878 21.7871 17.8379C21.8023 17.663 21.8043 17.5086 21.7929 17.3656C21.7815 17.2227 21.7937 17.1132 21.6605 16.8945C21.3812 16.4359 21.0648 16.4239 20.7347 16.2606C20.5513 16.1698 20.0291 15.9148 19.5054 15.6652C18.9823 15.416 18.5293 15.1952 18.2503 15.0957C18.0741 15.0323 17.8589 14.941 17.5484 14.9762C17.2379 15.0113 16.9312 15.2354 16.7527 15.5C16.5835 15.7509 15.9022 16.555 15.6945 16.7914C15.6917 16.7897 15.7097 16.798 15.6277 16.7574C15.3708 16.6303 15.0566 16.5222 14.5917 16.277C14.1269 16.0317 13.5453 15.6696 12.9089 15.1086V15.1074C11.9618 14.2736 11.2983 13.2267 11.089 12.875C11.1031 12.8582 11.0873 12.8786 11.1171 12.8492L11.1183 12.8481C11.3322 12.6374 11.5218 12.3857 11.682 12.2012C11.9091 11.9395 12.0093 11.7089 12.1179 11.4934C12.3343 11.0639 12.2138 10.5913 12.0886 10.3426V10.3414C12.0973 10.3586 12.0209 10.1901 11.9386 9.99572C11.8561 9.80077 11.7509 9.54804 11.6386 9.27853C11.414 8.73951 11.1632 8.13496 11.014 7.78087V7.7797C10.8383 7.36262 10.6006 7.06216 10.2898 6.9172C9.979 6.77224 9.70442 6.81345 9.69331 6.8129H9.69214C9.47035 6.80267 9.22697 6.80001 8.9855 6.80001ZM8.9855 8.00001C9.21682 8.00001 9.44488 8.00283 9.63589 8.01173C9.83238 8.02152 9.82016 8.02233 9.78237 8.0047C9.74398 7.98679 9.79607 7.98098 9.90776 8.24611C10.0538 8.59282 10.3059 9.19956 10.5312 9.74025C10.6439 10.0106 10.7493 10.2643 10.8335 10.4633C10.9178 10.6623 10.9634 10.7734 11.0164 10.8793V10.8805L11.0175 10.8817C11.0695 10.9841 11.0649 10.9185 11.0468 10.9543C10.9202 11.2056 10.903 11.2673 10.775 11.4149C10.5799 11.6395 10.381 11.8901 10.2757 11.9938C10.1836 12.0843 10.0174 12.2252 9.91362 12.5012C9.80968 12.7776 9.85819 13.1568 10.025 13.4399C10.247 13.8168 10.9786 15.0076 12.1156 16.0086C12.8316 16.6398 13.4987 17.0576 14.0316 17.3387C14.5645 17.6198 14.9985 17.784 15.0957 17.832C15.3263 17.9462 15.5783 18.0348 15.8714 17.9996C16.1645 17.9644 16.4172 17.7866 16.5781 17.6047L16.5792 17.6035C16.7933 17.3608 17.4295 16.6344 17.7347 16.1867C17.7477 16.1913 17.7434 16.1877 17.8449 16.2242V16.2254H17.846C17.8924 16.2419 18.4725 16.5016 18.9898 16.7481C19.5071 16.9945 20.0321 17.2507 20.2027 17.3352C20.4489 17.457 20.5652 17.5363 20.5953 17.5367C20.5973 17.5895 20.5993 17.6467 20.5917 17.7336C20.5707 17.9746 20.5063 18.3081 20.3773 18.6652C20.3141 18.8401 19.985 19.2006 19.5699 19.4633C19.1548 19.726 18.6496 19.9115 18.4625 19.9391C17.8999 20.022 17.232 20.0522 16.4984 19.8219C15.9898 19.6622 15.3555 19.4556 14.5343 19.1059C12.8688 18.3956 11.4533 17.1869 10.4421 16.1223C9.93655 15.59 9.53149 15.0944 9.24331 14.7195C8.95567 14.3454 8.83007 14.1506 8.72534 14.0129L8.72417 14.0117C8.53827 13.7659 7.39995 12.1825 7.39995 10.7563C7.39995 9.24681 8.10105 8.65487 8.48042 8.24611C8.67958 8.03151 8.89732 8.00001 8.9855 8.00001Z" fill="black"/>
</svg>
